<svg width="256" height="256" viewBox="0 0 256 256" fill="none" xmlns="http://www.w3.org/2000/svg">
<path d="M149.013 5.21395C144.184 1.80326 138.646 0 133 0C127.354 0 121.816 1.80326 116.987 5.21395L44.8869 56.1534C40.3434 59.3625 36.5865 63.8829 33.9788 69.2782C31.3711 74.6735 30.0007 80.7613 30 86.9539V169.046C30.0007 175.239 31.3711 181.327 33.9788 186.722C36.5865 192.117 40.3434 196.637 44.8869 199.847L116.987 250.786C121.816 254.197 127.354 256 133 256C138.646 256 144.184 254.197 149.013 250.786L221.113 199.847C225.657 196.637 229.414 192.117 232.021 186.722C234.629 181.327 235.999 175.239 236 169.046V86.9539C235.999 80.7613 234.629 74.6735 232.021 69.2782C229.414 63.8829 225.657 59.3625 221.113 56.1534L149.013 5.21395Z" fill="#050613"/>
<path d="M183.676 185.338C183.676 186.832 183.083 188.265 182.026 189.322C180.969 190.378 179.536 190.972 178.042 190.972H87.9014C86.4072 190.972 84.9743 190.378 83.9177 189.322C82.8612 188.265 82.2676 186.832 82.2676 185.338V67.0282H138.606V55.7606H71V185.338C71 189.821 72.7807 194.12 75.9503 197.289C79.1199 200.459 83.4189 202.239 87.9014 202.239H178.042C182.525 202.239 186.824 200.459 189.993 197.289C193.163 194.12 194.944 189.821 194.944 185.338V112.099H183.676V185.338Z" fill="white"/>
<path d="M201.002 48.8008C198.427 46.3604 195.013 45 191.464 45C187.915 45 184.5 46.3604 181.926 48.8008L155.471 75.1812L150.972 99L174.592 94.2812L201.002 67.9007C202.26 66.6482 203.259 65.1598 203.94 63.521C204.621 61.8822 204.972 60.1252 204.972 58.3508C204.972 56.5763 204.621 54.8193 203.94 53.1805C203.259 51.5417 202.26 50.0533 201.002 48.8008ZM170.138 85.9671L162.22 87.54L163.794 79.6304L178.731 64.665L185.12 71.0466L170.138 85.9671ZM194.658 61.5191L191.464 64.665L185.12 58.3283L188.269 55.1375C188.688 54.7162 189.185 54.3819 189.734 54.1537C190.282 53.9256 190.87 53.8081 191.464 53.8081C192.058 53.8081 192.646 53.9256 193.194 54.1537C193.742 54.3819 194.24 54.7162 194.658 55.1375C195.08 55.5553 195.415 56.0523 195.643 56.6C195.871 57.1476 195.989 57.735 195.989 58.3283C195.989 58.9216 195.871 59.509 195.643 60.0566C195.415 60.6043 195.08 61.1013 194.658 61.5191Z" fill="white"/>
<path d="M109.351 174.19C108.081 174.19 106.96 173.746 105.986 172.857C105.055 171.926 104.59 170.826 104.59 169.557C104.59 168.287 105.013 167.187 105.86 166.256L143.374 119.664L107.954 119.981C107.15 119.981 106.304 119.474 105.415 118.458C104.569 117.442 104.146 116.533 104.146 115.729C104.146 114.374 104.548 113.168 105.352 112.11C106.156 111.01 107.341 110.46 108.906 110.46L154.8 110.079C155.731 110.206 156.662 110.672 157.593 111.476C158.524 112.237 158.989 113.232 158.989 114.459C158.989 115.898 158.566 117.083 157.72 118.014L120.142 164.669H155.562C156.493 164.669 157.36 165.198 158.164 166.256C159.011 167.314 159.434 168.372 159.434 169.43C159.434 170.488 159.011 171.546 158.164 172.604C157.36 173.661 156.493 174.19 155.562 174.19H109.351Z" fill="white"/>
</svg>
